<?xml version="1.0" encoding="UTF-8" standalone="no"?><!DOCTYPE svg PUBLIC "-//W3C//DTD SVG 1.1//EN" "http://www.w3.org/Graphics/SVG/1.1/DTD/svg11.dtd"><svg width="100%" height="100%" viewBox="0 0 769 103" version="1.1" xmlns="http://www.w3.org/2000/svg" xmlns:xlink="http://www.w3.org/1999/xlink" xml:space="preserve" style="fill-rule:evenodd;clip-rule:evenodd;stroke-linecap:round;stroke-linejoin:round;stroke-miterlimit:1.5;"><rect id="アートボード1" x="0" y="0" width="768" height="102" style="fill:none;"/><text x="99.167px" y="84.952px" style="font-family:'Lato-Regular', 'Lato', sans-serif;font-size:100px;fill:#ec5b76;">XHIP</text><g transform="matrix(1,0,0,1,56.4234,-39.6675)"><text x="290.765px" y="65.699px" style="font-family:'Lato-Regular', 'Lato', sans-serif;font-size:20px;fill:#666;">T<tspan x="302.405px " y="65.699px ">h</tspan>e isomorphic, single-endpoin<tspan x="564.515px " y="65.699px ">t</tspan>,</text><path d="M351.615,85.699l-1.78,0l0,-8.64l-5.22,0l0,6.08c0,0.427 0.104,0.744 0.31,0.95c0.207,0.207 0.474,0.31 0.8,0.31c0.187,0 0.349,-0.025 0.485,-0.075c0.137,-0.05 0.255,-0.105 0.355,-0.165c0.1,-0.06 0.185,-0.115 0.255,-0.165c0.07,-0.05 0.132,-0.075 0.185,-0.075c0.094,0 0.177,0.057 0.25,0.17l0.52,0.85c-0.306,0.287 -0.676,0.512 -1.11,0.675c-0.433,0.164 -0.88,0.245 -1.34,0.245c-0.8,0 -1.415,-0.223 -1.845,-0.67c-0.43,-0.446 -0.645,-1.09 -0.645,-1.93l0,-6.2l-1.22,0c-0.106,0 -0.196,-0.031 -0.27,-0.095c-0.073,-0.063 -0.11,-0.161 -0.11,-0.295l0,-0.71l1.66,-0.22l0.41,-3.12c0.02,-0.1 0.065,-0.181 0.135,-0.245c0.07,-0.063 0.162,-0.095 0.275,-0.095l0.9,0l0,3.49l7,0l0,9.93Zm0.44,-13.38c0,0.174 -0.035,0.335 -0.105,0.485c-0.07,0.15 -0.163,0.282 -0.28,0.395c-0.116,0.114 -0.251,0.204 -0.405,0.27c-0.153,0.067 -0.316,0.1 -0.49,0.1c-0.173,0 -0.335,-0.033 -0.485,-0.1c-0.15,-0.066 -0.281,-0.156 -0.395,-0.27c-0.113,-0.113 -0.203,-0.245 -0.27,-0.395c-0.066,-0.15 -0.1,-0.311 -0.1,-0.485c0,-0.173 0.034,-0.338 0.1,-0.495c0.067,-0.156 0.157,-0.293 0.27,-0.41c0.114,-0.116 0.245,-0.208 0.395,-0.275c0.15,-0.066 0.312,-0.1 0.485,-0.1c0.174,0 0.337,0.034 0.49,0.1c0.154,0.067 0.289,0.159 0.405,0.275c0.117,0.117 0.21,0.254 0.28,0.41c0.07,0.157 0.105,0.322 0.105,0.495Z" style="fill:#666;"/><text x="290.765px" y="85.699px" style="font-family:'Lato-Regular', 'Lato', sans-serif;font-size:20px;fill:#666;">oper<tspan x="330.995px 353.125px " y="85.699px 85.699px ">ao</tspan>n-based fr<tspan x="453.865px " y="85.699px ">a</tspan>me<tspan x="490.715px 506.285px " y="85.699px 85.699px ">wo</tspan>rk f<tspan x="546.865px 558.205px 565.065px " y="85.699px 85.699px 85.699px ">or </tspan>modern ag<tspan x="663.475px " y="85.699px ">e</tspan></text></g><g><circle cx="44.731" cy="48.64" r="38.772" style="fill:none;stroke:#ec5b76;stroke-width:4.92px;"/><path d="M53.333,87.333l1.667,-19l17.333,8" style="fill:none;stroke:#ec5b76;stroke-width:4.92px;stroke-linecap:butt;"/><path d="M66.757,52.496l-10.709,15.783l-11.242,-15.429" style="fill:none;stroke:#ec5b76;stroke-width:4.92px;stroke-linecap:butt;"/><path d="M47.135,53.185l-16.041,10.318l-4.29,-18.602" style="fill:none;stroke:#ec5b76;stroke-width:4.92px;stroke-linecap:butt;"/><path d="M11.196,65.311l19.035,-1.2l-5.312,18.336" style="fill:none;stroke:#ec5b76;stroke-width:4.92px;stroke-linecap:butt;"/><path d="M26.419,47.242l10.866,-15.676l11.088,15.541" style="fill:none;stroke:#ec5b76;stroke-width:4.92px;stroke-linecap:butt;"/><path d="M46.047,46.748l16.143,-10.157l4.105,18.644" style="fill:none;stroke:#ec5b76;stroke-width:4.92px;stroke-linecap:butt;"/><path d="M82.105,34.982l-19.046,1.01l5.495,-18.283" style="fill:none;stroke:#ec5b76;stroke-width:4.92px;stroke-linecap:butt;"/><path d="M65.757,53.496l-10.709,15.783l-11.242,-15.429" style="fill:none;stroke:#ec5b76;stroke-width:4.92px;stroke-linecap:butt;"/><path d="M48.135,53.185l-16.699,10.76l-4.369,-19.247" style="fill:none;stroke:#ec5b76;stroke-width:4.92px;stroke-linecap:butt;"/><path d="M11.196,65.311l19.035,-1.2l-5.312,18.336" style="fill:none;stroke:#ec5b76;stroke-width:4.92px;stroke-linecap:butt;"/><path d="M55,12.333l-17.333,20l-10,-18.333" style="fill:none;stroke:#ec5b76;stroke-width:4.92px;stroke-linecap:butt;"/></g></svg>